<svg xmlns="http://www.w3.org/2000/svg" xmlns:xlink="http://www.w3.org/1999/xlink" width="37" height="35" viewBox="0 0 37 35"><defs><path id="tcwfa" d="M368 532.34V548h-1.93c-5.23 0-9.7-2.8-11.44-6.7-1.74 3.9-6.21 6.7-11.44 6.7-6.73 0-12.19-4.64-12.19-10.34V523.2c0-.45.03-.9.1-1.34.85-5 5.95-8.86 12.1-8.86 6.48 0 11.8 4.3 12.19 9.72l.02.64c.02 4.82 4.8 8.73 10.66 8.73zm-27.89-17.38c2.08-.17 4.24.17 6.18 1.1a7.54 7.54 0 0 1 4.17 4.77c.17.63.2 1.45.2 1.9v6.85a8.05 8.05 0 0 0 3.2-6.24c0-4.83-4.79-8.76-10.67-8.76-1.07 0-2.1.13-3.08.38zm-7.57 8.38c0 2.94 1.77 5.54 4.5 7.13v-6.49-.05c0-.87.28-1.72.8-2.48 1.32-1.93 4.15-2.59 6.43-1.5.27.14.44.41.44.72v6.7a5.48 5.48 0 0 0 3.5-2.16 4.8 4.8 0 0 0 .74-3.97 5.97 5.97 0 0 0-3.32-3.75c-4.34-2.08-9.88-.84-12.35 2.75-.03.05-.25.46-.31.64-.28.78-.43 1.6-.43 2.46zm6.05 4.03v3.86c1.4.55 2.96.86 4.6.86 2.19 0 4.22-.54 5.91-1.47v-4a7.39 7.39 0 0 1-5.11 2.44 8.19 8.19 0 0 1-4-.75 5.7 5.7 0 0 1-1.4-.94zm.1-2.7c.23.92.96 1.73 1.97 2.21.77.37 1.62.58 2.5.61v-6.28c-.4-.13-.8-.19-1.2-.19-1.14 0-2.26.48-2.84 1.34-.49.7-.64 1.52-.44 2.3zm15.16 3.71c-.3.45-.63.88-1 1.28v2.32c0 .44-.35.8-.78.8a.79.79 0 0 1-.78-.8v-.91c-.3.22-.8.57-1.57 1v2.11c0 .44-.35.8-.78.8a.79.79 0 0 1-.78-.8v-1.4c-.68.26-1.4.47-2.15.61v1.76c0 .43-.35.79-.78.79a.79.79 0 0 1-.78-.8v-1.52a14.52 14.52 0 0 1-2.51 0v1.53c0 .43-.35.79-.78.79a.79.79 0 0 1-.78-.8v-1.75c-.75-.14-1.47-.35-2.15-.61v1.4c0 .44-.35.8-.78.8a.79.79 0 0 1-.78-.8v-2.11c-.56-.3-1.08-.63-1.57-1v.91c0 .44-.35.8-.78.8a.79.79 0 0 1-.78-.8v-2.32c-.37-.4-.7-.83-1-1.28v9.28c0 4.83 4.78 8.76 10.65 8.76 5.88 0 10.66-3.93 10.66-8.76zm12.06 5.3c-.9-.02-1.77-.11-2.6-.27v2.07c0 .43-.35.79-.78.79a.79.79 0 0 1-.78-.8V533c-.63-.2-1.24-.44-1.82-.73v1.56c0 .44-.34.79-.78.79a.79.79 0 0 1-.77-.8v-2.46c-.29-.2-.56-.4-.83-.62v.94c0 .43-.35.79-.78.79a.79.79 0 0 1-.78-.8v-2.5c-.2-.25-.4-.51-.58-.78v9.32c.03 4.8 4.8 8.7 10.66 8.7z"/></defs><g><g transform="translate(-331 -513)"><use fill="#8db422" xlink:href="#tcwfa"/></g></g></svg>