<svg xmlns="http://www.w3.org/2000/svg" xmlns:xlink="http://www.w3.org/1999/xlink" width="33" height="33" viewBox="0 0 33 33"><defs><path id="s6o8a" d="M855 423.34v22.32c0 2.94-2.4 5.34-5.34 5.34h-22.32a5.35 5.35 0 0 1-5.34-5.34v-22.32c0-2.94 2.4-5.34 5.34-5.34h22.32c2.94 0 5.34 2.4 5.34 5.34zm-31.53 0v4.28h5.94c2.52 0 3.24 1.05 3.87 1.98.67 1 1.37 2.03 5.22 2.03 3.85 0 4.55-1.03 5.22-2.03.63-.93 1.35-1.98 3.87-1.98h5.94v-4.28a3.88 3.88 0 0 0-3.87-3.87h-22.32a3.88 3.88 0 0 0-3.87 3.87zm30.06 22.32v-16.57h-5.94c-1.75 0-2.1.53-2.65 1.34-.8 1.19-1.8 2.67-6.44 2.67-4.63 0-5.63-1.48-6.44-2.67-.54-.81-.9-1.34-2.65-1.34h-5.94v16.57a3.88 3.88 0 0 0 3.87 3.87h22.32a3.88 3.88 0 0 0 3.87-3.87zm-20.75-22.3a.73.73 0 0 1 .12-.85c.07-.07 1.8-1.79 5.6-1.79s5.53 1.72 5.6 1.8c.22.22.27.57.12.85l-2.53 4.8a.73.73 0 0 1-.65.4h-5.08a.73.73 0 0 1-.65-.4zm1.58-.13l2.04 3.87h.86l.55-1.55a.73.73 0 0 1 1.37-.03l.63 1.58h.79l2.04-3.87c-.2-.14-.5-.3-.87-.45l-.44 1.64a.73.73 0 0 1-1.41-.38l.45-1.68a9.3 9.3 0 0 0-1.14-.14v1.65a.73.73 0 1 1-1.46 0v-1.65c-.42.02-.8.07-1.14.14l.45 1.68a.73.73 0 0 1-1.41.38l-.44-1.64c-.38.15-.66.31-.87.45zM845 437.56a.6.6 0 0 1-.2.46l-5.14 4.87-.96.92a.68.68 0 0 1-.48.19.68.68 0 0 1-.49-.19l-.96-.92-2.57-2.43a.6.6 0 0 1-.2-.46.6.6 0 0 1 .2-.46l.96-.91c.14-.13.3-.2.49-.2s.35.07.48.2l2.09 1.98 4.65-4.42c.13-.13.3-.19.48-.19.2 0 .35.06.49.19l.96.92c.13.12.2.27.2.45z"/></defs><g><g transform="translate(-822 -418)"><use fill="#86af14" xlink:href="#s6o8a"/></g></g></svg>