<svg xmlns="http://www.w3.org/2000/svg" xmlns:xlink="http://www.w3.org/1999/xlink" width="52" height="54" viewBox="0 0 52 54"><defs><path id="l3x5a" d="M920.31 256.2v1.26c0 .12-.01.27-.06.42a1.86 1.86 0 0 1-1.82 1.21c-.67 0-1.25-.39-1.25-1.26 0-1.41 1.67-1.66 3.13-1.63zm-13.26 3.7h1.57l-4.02-5.82 3.73-4.3h-1.65l-3.14 3.8-.82 1.08h-.04v-4.87h-1.33v10.11h1.33v-3.86l1-1.1 3.37 4.96zm3.36-3.61c0-1.5.91-2.75 2.6-2.75.74 0 1.24.18 1.56.35l.3-1.01a4.3 4.3 0 0 0-1.86-.39c-2.41 0-3.97 1.64-3.97 3.87 0 2.22 1.45 3.7 3.68 3.7 1 0 1.77-.24 2.13-.41l-.23-1c-.38.17-.89.35-1.65.35-1.47 0-2.57-1.03-2.56-2.71zm10.1 3.62h1.2c-.07-.5-.1-1.12-.1-1.75v-2.71c0-1.44-.55-2.96-2.81-2.96-.93 0-1.84.25-2.45.63l.3.89a3.6 3.6 0 0 1 1.95-.55c1.51 0 1.68 1.09 1.68 1.67v.15c-2.86-.01-4.44.95-4.44 2.7 0 1.05.76 2.09 2.26 2.09 1.05 0 1.84-.51 2.26-1.08h.04l.1.91zm4.61-10.66h-1.34v10.65h1.34zm-14.07 29.8a3 3 0 0 1 3 3.01h-2a1 1 0 0 0-1-1 1 1 0 0 0-1 1h-2a3 3 0 0 1 3-3zm-7.99 1a3 3 0 0 1 3 3.01h-2a1 1 0 0 0-1-1 1 1 0 0 0-1 1h-2a3 3 0 0 1 3-3zm-7.5-3.8l-3.44-12.96a1.03 1.03 0 0 1-.04-.26c0-1.1.9-2 2-2h2c.36 0 .7.1 1 .27V247a1 1 0 0 1 1-1H936a1 1 0 0 1 1 1v46.08a1 1 0 0 1-.6.92l-6.97 3a1 1 0 0 1-.39.09h-.02H913.72a18.57 18.57 0 0 1-9.97 2.9A18.8 18.8 0 0 1 885 281.2v-.11c0-3 6.16-4.29 10.56-4.83zm.52-13.22h-1.97l3.68 13.83.6 2.3a1 1 0 0 1-.97 1.25 1 1 0 0 1-.97-.75l-.37-1.45c-6.82.8-9.09 2.39-9.09 2.87 0 .98 5.7 3.3 16.76 3.3 11.06 0 16.76-2.32 16.76-3.3 0-.99-5.7-3.3-16.76-3.3-.6 0-1.16.02-1.73.04l.19.74a1 1 0 0 1-.97 1.25 1 1 0 0 1-.97-.76l-.5-1.95-3.66-13.81a1.03 1.03 0 0 1-.03-.26zm33.96 31.53l4.97-2.14V248h-4.97zm-13.66.52H928V262h-28.94v4.66l2.43 9.15c.74-.02 1.49-.03 2.25-.03 6.49 0 18.75 1.1 18.75 5.3v.1c0 .66-.03 1.32-.1 1.96-.02.2-.06.38-.09.57-.06.45-.12.9-.2 1.33l-.2.74c-.1.37-.18.74-.3 1.1-.08.28-.2.56-.3.84-.11.3-.22.61-.35.91-.13.3-.28.6-.43.9-.13.25-.25.52-.39.77l-.53.88-.45.7a19.25 19.25 0 0 1-2.48 2.9l-.3.3zM903.75 298c3.41 0 6.58-1.03 9.23-2.8l.38-.25.84-.63.3-.24c.35-.3.7-.61 1.02-.94l.18-.18c.32-.34.64-.68.93-1.04l.06-.06a16.73 16.73 0 0 0 2.44-4.01l.1-.23c.18-.45.35-.92.5-1.39l.05-.18c.13-.42.24-.86.34-1.3l.06-.27.1-.7c-3.83 2-11.75 2.6-16.53 2.6-4.78 0-12.7-.6-16.53-2.6A16.78 16.78 0 0 0 903.75 298z"/></defs><g><g transform="translate(-885 -246)"><use fill="#fff" xlink:href="#l3x5a"/></g></g></svg>