<svg xmlns="http://www.w3.org/2000/svg" xmlns:xlink="http://www.w3.org/1999/xlink" width="165" height="114" viewBox="0 0 165 114"><defs><path id="3qyfa" d="M800.25 241.85a51.8 51.8 0 0 1 51.74 51.75 51.8 51.8 0 0 1-51.74 51.75 51.8 51.8 0 0 1-51.75-51.75 51.8 51.8 0 0 1 51.75-51.75zm0 102.42a50.73 50.73 0 0 0 50.67-50.67 50.73 50.73 0 0 0-50.67-50.67 50.73 50.73 0 0 0-50.68 50.67 50.73 50.73 0 0 0 50.68 50.67zM800.16 236h.24a57.07 57.07 0 0 1 56.77 57.23 56.62 56.62 0 0 1-16.86 40.24A56.62 56.62 0 0 1 800.17 350h-.23a57.06 57.06 0 0 1-56.77-57.23 57.07 57.07 0 0 1 57-56.77zm-.22 112.12h.23a54.74 54.74 0 0 0 38.81-15.99 54.76 54.76 0 0 0 16.3-38.9 55.19 55.19 0 0 0-54.9-55.35h-.22c-30.28 0-54.99 24.58-55.11 54.9a55.18 55.18 0 0 0 54.9 55.34zm-80.88-104.17h1.28c4.72 0 12.8 2.19 13.14 10.37.38 9.41.45 16.7.5 23.12.05 4.33.08 8.43.22 12.57.15 4.84-3.7 8.28-5.26 9.46l2.4 30.66v.11l-.01.12c-.4 3.59-3.28 6.03-3.81 6.45-1.76 1.74-3.3 2.59-4.7 2.59-2.26 0-3.26-2.15-3.48-3.28l-.34-90.9zm2.81 91.8c.08.26.36 1.12.95 1.12.31 0 1.23-.18 2.94-1.89l.14-.12c.03-.02 2.53-1.96 2.88-4.66l-2.5-31.98.63-.4c.05-.04 4.88-3.2 4.74-7.73-.14-4.17-.17-8.28-.21-12.63-.06-6.4-.12-13.66-.5-23.04-.27-6.35-6.55-7.63-9.38-7.88zm5.38-7.2c0 1.13-.94 2.06-2.1 2.06-1.15 0-2.09-.93-2.09-2.07 0-1.14.94-2.07 2.1-2.07 1.15 0 2.09.93 2.09 2.07zm133.5-80.07c0-.62.51-1.12 1.14-1.12.62 0 1.13.5 1.13 1.12l.03 22.93c-.03.3-.5 7.61 5.82 9.08l1.09.14c.58.07 1 .56 1 1.14l-1.26 51.89s-.06.87.5 1.46c.43.46 1.17.69 2.18.69 1.15 0 1.98-.26 2.47-.77.55-.58.5-1.37.5-1.44l-1.55-51.83a1.12 1.12 0 0 1 1-1.14l.96-.11c6.4-1.49 5.97-8.8 5.94-9.2l.03-22.84c0-.62.5-1.12 1.14-1.12.62 0 1.13.5 1.13 1.12l-.03 22.76c.24 3.29-1.05 9.92-7.81 11.48h-.07l1.52 50.75a4.2 4.2 0 0 1-1.07 3.07c-.93 1-2.33 1.51-4.17 1.51-1.68 0-2.98-.48-3.86-1.43a4.29 4.29 0 0 1-1.08-3.08l1.23-50.82-.2-.02c-6.63-1.54-7.93-8.17-7.69-11.37zm17.08 24.7c-.62 0-1.13-.5-1.13-1.13v-23.57c0-.62.5-1.12 1.13-1.12.63 0 1.14.5 1.14 1.12v23.57c0 .62-.51 1.13-1.14 1.13zm-5.35 0c-.62 0-1.13-.5-1.13-1.13v-23.57c0-.62.5-1.12 1.13-1.12.63 0 1.13.5 1.13 1.12v23.57c0 .62-.5 1.13-1.13 1.13zm-5.35 0c-.63 0-1.13-.5-1.13-1.13v-23.57c0-.62.5-1.12 1.13-1.12.63 0 1.13.5 1.13 1.12v23.57c0 .62-.5 1.13-1.13 1.13zm-36.94 9.88a32.08 32.08 0 0 1 1.57 9.94c0 8.55-3.32 16.58-9.34 22.63a31.61 31.61 0 0 1-22.54 9.37 31.61 31.61 0 0 1-22.54-9.37A31.85 31.85 0 0 1 768 293c0-8.55 3.32-16.58 9.34-22.63a31.61 31.61 0 0 1 22.54-9.37 31.77 31.77 0 0 1 23.38 10.24c.39.42.36 1.08-.06 1.46-.41.39-1.06.37-1.45-.05a29.73 29.73 0 0 0-42.96-.82 29.8 29.8 0 0 0-8.73 21.17c0 8 3.1 15.51 8.73 21.17a29.57 29.57 0 0 0 21.09 8.77c7.97 0 15.46-3.12 21.09-8.77A29.8 29.8 0 0 0 829.7 293c0-3.18-.49-6.3-1.46-9.3a1.03 1.03 0 1 1 1.95-.64zm-49.5 8.42l13.83 13.9a1.02 1.02 0 0 0 1.46 0l35.76-35.8c.2-.19 1.71 1.1 1.13 1.68l-35.44 35.57a3.06 3.06 0 0 1-4.36 0l-13.84-13.89c-.58-.58 1.26-1.65 1.46-1.46z"/></defs><g><g transform="translate(-719 -236)"><use fill="#86af14" xlink:href="#3qyfa"/></g></g></svg>