<svg xmlns="http://www.w3.org/2000/svg" xmlns:xlink="http://www.w3.org/1999/xlink" width="59" height="59" viewBox="0 0 59 59"><defs><path id="npkoa" d="M924.53 602.75a1.15 1.15 0 1 1-1.63-1.63 1.15 1.15 0 0 1 1.63 1.63zm18.12-10a4.6 4.6 0 0 1-5.59.71c-.2-.11-4-2.53-6.35-3.83a18.75 18.75 0 0 1-4.72-3.72l-1.12-1.22v9.61l10.07 4.98a5.65 5.65 0 0 1-2.6 10.72h-35.68a5.67 5.67 0 0 1-2.6-10.72l10.07-4.98v-9.61l-1.09 1.18a18.92 18.92 0 0 1-4.75 3.76c-2.35 1.3-6.16 3.72-6.35 3.83a4.6 4.6 0 0 1-4.93-7.76c.69-.33 6.79-3.7 8.93-4.8l5.59-9.23a4.64 4.64 0 0 1 3.62-2.22h.03l.03-.01h18.42a4.63 4.63 0 0 1 3.84 2.22l5.58 9.25c1.54.78 9.12 4.9 9.15 4.92a4.61 4.61 0 0 1 .45 6.92zm-31.6-17.55a3.46 3.46 0 1 0 6.9 0v-3.46h-6.9zm-4.62 18.67h16.14v-22.13h-2.3v3.46a5.77 5.77 0 0 1-11.53 0v-3.47h-2.3v22.14zm-2.3-12.59v-9.1c-.25.18-.46.41-.63.68l-5.75 9.52c-.12.19-.28.34-.48.44-1.8.9-7.97 4.3-9.14 4.9a2.3 2.3 0 0 0 2.64 3.76c.23-.14 4.04-2.56 6.4-3.87a16.61 16.61 0 0 0 4.16-3.29h.01l2.79-3.04zm6.91 21.8h-4.6a2.3 2.3 0 0 0 0 4.62h4.6zm12.4-6.9h-17.89l-10.46 5.16a3.34 3.34 0 0 0-1.43 4.6 3.35 3.35 0 0 0 3 1.76h5.78a4.61 4.61 0 0 1 3.99-6.91h12.68a1.15 1.15 0 1 1 0 2.3h-5.76v4.6h18.99a3.36 3.36 0 0 0 1.57-6.34zm17.43-8.46c-1.17-.6-7.36-4.01-9.15-4.9-.2-.1-.35-.25-.47-.44l-5.75-9.52a2.3 2.3 0 0 0-.63-.67v9.1c.87.94 1.95 2.1 2.82 3.06 1.2 1.3 2.6 2.4 4.14 3.26 2.39 1.32 6.15 3.72 6.4 3.87a2.3 2.3 0 0 0 2.63-3.76zm-18.3-28.65a8.08 8.08 0 0 1-16.14 0 8.08 8.08 0 0 1 16.14 0zm-2.3 0a5.77 5.77 0 1 0-11.55 0 5.77 5.77 0 0 0 11.54 0z"/></defs><g><g transform="translate(-885 -551)"><use fill="#fff" xlink:href="#npkoa"/></g></g></svg>