<svg xmlns="http://www.w3.org/2000/svg" xmlns:xlink="http://www.w3.org/1999/xlink" width="74" height="50" viewBox="0 0 74 50"><defs><path id="9z66a" d="M358.97 272c0 13.64-11.21 24.74-24.99 24.74-13.77 0-24.98-11.1-24.98-24.74 0-13.64 11.2-24.74 24.98-24.74 13.78 0 24.99 11.1 24.99 24.74zm-2.37 0c0-12.35-10.15-22.4-22.62-22.4s-22.61 10.05-22.61 22.4c0 12.35 10.14 22.4 22.61 22.4 12.47 0 22.62-10.05 22.62-22.4zm-4.43 0c0 9.93-8.16 18.01-18.19 18.01A18.12 18.12 0 0 1 315.8 272c0-9.93 8.16-18 18.18-18a18.12 18.12 0 0 1 18.19 18zm-2.37 0c0-8.64-7.1-15.66-15.82-15.66A15.76 15.76 0 0 0 318.17 272c0 8.64 7.1 15.67 15.81 15.67 8.73 0 15.82-7.03 15.82-15.67zm21.2 21.19a3.6 3.6 0 0 1-1.1 2.57 4.34 4.34 0 0 1-2.99 1.24c-1.55 0-3.44-.98-3.63-3.74-.17-2.31.31-6.21.78-9.99.31-2.6.64-5.26.73-7.19h-.1a19.43 19.43 0 0 0-1.94 0h-.06c-.99 0-2.23-.57-2.51-3.28-.43-4.14 1.32-11.84 2.1-14.96a87.36 87.36 0 0 1 2.02-7.01c1.05-3.06 1.57-3.65 2.32-3.8l.27-.03c1.22 0 1.5 1.4 1.62 2 .14.68.26 1.62.37 2.89.18 2.04.32 4.89.43 8.45.17 5.77.2 11.6.2 12.2.1 1.21 1.47 17.82 1.49 20.65zm-2.37.01c-.02-2.79-1.47-20.34-1.49-20.52v-.1c-.02-7.9-.25-16.46-.65-20.85a95 95 0 0 0-2.62 9.72c-1.86 8.57-1.43 11.68-1.06 12.28.13.26 2.57.03 3.18.03.64 0 1.17.5 1.18 1.14.04 2.08-.35 5.27-.76 8.65-.45 3.67-.92 7.46-.77 9.55.07 1.03.5 1.55 1.27 1.55.48 0 .98-.2 1.32-.54.27-.27.4-.57.4-.9zm-63.8-28.44v6.71h.4c.63 0 1.15.48 1.2 1.1l.11 1.63c.32 4.2 1.05 15.94.93 18.71-.11 2.41-2.38 3.9-4.42 3.9-1.91 0-3.87-1.3-3.93-4.24-.1-4.75 1.1-16.36 1.66-20.06.08-.57.56-.99 1.14-1l.55-.01v-6.72c-3.36-.38-5.47-2.33-5.47-5.17v-11.4c0-.66.53-1.18 1.18-1.18.66 0 1.19.52 1.19 1.17v9.6l1.05-.02v-8.92c0-.64.53-1.17 1.19-1.17.65 0 1.18.53 1.18 1.17v8.89l1.1-.02v-8.87c0-.64.54-1.17 1.2-1.17.65 0 1.18.53 1.18 1.17v8.84l1.21-.02-.02-1.04c-.05-2.08-.1-5.45-.1-8.17 0-.65.53-1.17 1.18-1.17.65 0 1.18.52 1.18 1.17 0 2.7.06 6.05.1 8.11.04 1.36.06 2.43.06 3.17 0 2.15-2.02 4.53-5.05 5zm-.65 9.61l-.04-.55-1.16.01c-.63 4.44-1.57 14.67-1.5 18.69.03 1.28.58 1.95 1.58 1.95.95 0 2-.67 2.04-1.67.12-2.62-.64-14.62-.92-18.43zm3.3-14.35l-8.06.12c.41 2.18 3.35 2.36 4.3 2.36 2.13 0 3.55-1.38 3.77-2.48z"/></defs><g><g transform="translate(-297 -247)"><use fill="#fff" xlink:href="#9z66a"/></g></g></svg>