<svg xmlns="http://www.w3.org/2000/svg" xmlns:xlink="http://www.w3.org/1999/xlink" width="59" height="55" viewBox="0 0 59 55"><defs><path id="m56va" d="M314.9 591.4c.68 0 1.22.55 1.22 1.22v8.76a1.21 1.21 0 0 1-2.43 0v-8.76c0-.67.54-1.22 1.21-1.22zm24.36 1.1v11.8c0 1.56-1.68 2.7-5.14 3.5-2.8.64-6.49.99-10.4.99-3.92 0-7.62-.35-10.41-.99-3.46-.8-5.15-1.94-5.15-3.5v-16.17a12.99 12.99 0 0 1-9.16-12.39 12.99 12.99 0 0 1 13.41-12.95 13 13 0 0 1 22.6 0l.43-.01a1.21 1.21 0 1 1 0 2.43c-.33 0-.68.01-1.02.05-.5.04-.98-.23-1.2-.68a10.5 10.5 0 0 0-9.5-5.94 10.5 10.5 0 0 0-9.5 5.94c-.23.45-.71.72-1.22.68a10.56 10.56 0 0 0-11.57 10.49 10.56 10.56 0 0 0 17.18 8.2 1.22 1.22 0 0 1 1.53 1.88 13.03 13.03 0 0 1-9.54 2.8v15.55c.23.25 1.27.87 3.94 1.4 2.53.5 5.79.78 9.17.78 3.39 0 6.65-.27 9.18-.78 2.67-.53 3.7-1.15 3.94-1.4V592.5a1.21 1.21 0 0 1 2.43 0zm13.31-29.85v8.77a1.21 1.21 0 0 1-2.43 0v-8.77a1.21 1.21 0 0 1 2.43 0zm-8.72 21.4c.43.52.35 1.28-.16 1.7a13.02 13.02 0 0 1-16.4.08 1.21 1.21 0 1 1 1.52-1.89 10.58 10.58 0 0 0 13.33-.06 1.22 1.22 0 0 1 1.71.17zM358 558.48v16.86c0 2.34-3.78 3.51-7.88 3.7v18.12a3.66 3.66 0 0 1 2.45 3.45v5.74a3.66 3.66 0 0 1-7.32 0v-5.74a3.66 3.66 0 0 1 2.44-3.45v-18.12c-4.1-.19-7.88-1.36-7.88-3.7v-16.86c0-.27.1-.53.26-.74 1.07-2.01 5.34-2.74 8.84-2.74s7.76.73 8.84 2.74c.16.2.25.46.25.74zm-9.1 40.9c-.67 0-1.22.55-1.22 1.23v5.74a1.23 1.23 0 0 0 2.46 0v-5.74c0-.68-.55-1.23-1.23-1.23zm6.67-40.54c-.38-.45-2.65-1.41-6.66-1.41s-6.29.96-6.66 1.4v16.4c.37.45 2.65 1.41 6.66 1.41 4 0 6.28-.96 6.66-1.4zm-7.9 3.81v8.77a1.21 1.21 0 0 1-2.43 0v-8.77a1.21 1.21 0 0 1 2.44 0z"/></defs><g><g transform="translate(-299 -555)"><use fill="#fff" xlink:href="#m56va"/></g></g></svg>