<svg xmlns="http://www.w3.org/2000/svg" xmlns:xlink="http://www.w3.org/1999/xlink" width="40" height="30" viewBox="0 0 40 30"><defs><path id="nwbda" d="M344.76 436.01v3.46c0 .53-.43.95-.96.95h-8.92a.96.96 0 0 1-.96-.95v-3.46a4.4 4.4 0 0 1 2.37-3.89c-.6-.7-.98-1.6-.98-2.58a4 4 0 0 1 4.03-3.96 4 4 0 0 1 4.03 3.96 3.9 3.9 0 0 1-.98 2.58 4.4 4.4 0 0 1 2.38 3.9zm-7.52-6.47c0 1.13.93 2.05 2.08 2.06h.04a2.08 2.08 0 0 0 2.08-2.06c0-1.14-.94-2.07-2.1-2.07-1.16 0-2.1.93-2.1 2.07zm5.6 8.99V436a2.54 2.54 0 0 0-2.56-2.5h-1.88a2.54 2.54 0 0 0-2.56 2.5v2.52zm6.13-9.71c0-.52.43-.95.96-.95h5.21c.54 0 .97.43.97.95s-.43.95-.97.95h-5.2a.96.96 0 0 1-.97-.95zm19.03-6.8v21.96a4.05 4.05 0 0 1-4.08 4.02h-3.89H354.97a1.01 1.01 0 0 1-.03 0h-5.03a1 1 0 0 1-.03 0h-5.03a1 1 0 0 1-.03 0h-5.03a.9.9 0 0 1-.03 0h-5.03a.9.9 0 0 1-.04 0h-2.6a4.05 4.05 0 0 1-4.09-4.02v-21.96a4.05 4.05 0 0 1 4.08-4.02H346.1a1 1 0 0 1 .03 0h17.79c2.26 0 4.09 1.8 4.09 4.02zm-1.93 21.96v-21.96c0-1.17-.96-2.12-2.15-2.12h-2.05l-1 1.85a.97.97 0 0 1-1.3.4.94.94 0 0 1-.4-1.29l.51-.96h-2.87l-1 1.85a.97.97 0 0 1-1.3.4.94.94 0 0 1-.4-1.29l.51-.96h-2.87l-1 1.85a.97.97 0 0 1-1.3.4.94.94 0 0 1-.4-1.29l.51-.96h-2.87l-1 1.85a.97.97 0 0 1-1.3.4.94.94 0 0 1-.4-1.29l.51-.96h-2.88l-1 1.85a.97.97 0 0 1-1.3.4.94.94 0 0 1-.4-1.29l.52-.96h-2.88l-1 1.85a.97.97 0 0 1-1.3.4.94.94 0 0 1-.4-1.29l.52-.96h-2.3c-1.19 0-2.15.95-2.15 2.12v21.96c0 1.17.96 2.12 2.15 2.12h2.05l1-1.85a.97.97 0 0 1 1.3-.4c.48.25.66.82.4 1.29l-.51.96h2.87l1-1.85a.97.97 0 0 1 1.3-.4c.48.25.66.82.4 1.29l-.51.96h2.87l1-1.85a.97.97 0 0 1 1.3-.4c.48.25.66.82.4 1.29l-.51.96h2.87l1-1.85a.97.97 0 0 1 1.3-.4c.48.25.66.82.4 1.29l-.51.96h2.88l1-1.85a.97.97 0 0 1 1.3-.4c.47.25.65.82.4 1.29l-.52.96h2.88l1-1.85a.97.97 0 0 1 1.3-.4c.47.25.65.82.4 1.29l-.52.96h2.3c1.19 0 2.15-.95 2.15-2.12zm-3.82-6.8c0 .52-.43.95-.96.95h-11.36a.96.96 0 0 1-.96-.95c0-.52.43-.95.96-.95h11.36c.53 0 .96.43.96.95zm0-3.77c0 .52-.43.95-.96.95h-11.36a.96.96 0 0 1-.96-.95c0-.52.43-.95.96-.95h11.36c.53 0 .96.43.96.95z"/></defs><g><g transform="translate(-328 -418)"><use fill="#86af14" xlink:href="#nwbda"/></g></g></svg>