<svg xmlns="http://www.w3.org/2000/svg" xmlns:xlink="http://www.w3.org/1999/xlink" width="76" height="77" viewBox="0 0 76 77"><defs><path id="4xuaa" d="M309.37 256.23a.49.49 0 0 1 .34-.6c2.82-.78 5.8-.77 8.66-1.4-2.15-8.48-1.74-17.27 1.8-25.09 3.52-7.77 10.13-13.34 17.23-17.55 7.1-4.2 15.7-7.64 24.22-6.94 4.3.35 8.63 1.62 12.23 4.25 3.12 2.28 6.59 4.7 8.63 8.1.04.03.09.07.12.13.65 1 1.22 2.06 1.66 3.16.09.1.14.22.14.35.2.51.36 1.04.5 1.57.05.2.02.42-.13.57l-.02.04c-1.57 2.45-3.98 4.7-6.05 6.72-.96.94-2.45 3.05-4 2.83-.2.22-.57.26-.74-.1l-.11-.24h-.02c-3.5-1.51-8.1-1.69-11.84-1.94-4.36-.3-8.9-.14-12.98 1.34a28.1 28.1 0 0 0-11.4 7.74 26.76 26.76 0 0 0-3.88 6.14l-.21.5c-.43 1.42-.74 2.89-1.16 4.31-.01.15-.04.3-.06.44-.12.72-.2 1.46-.2 2.2l4.38-.17 2.53-.23a.5.5 0 0 1 .18.1c.98.81 4.3 3.31 4.27 3.74a17.7 17.7 0 0 1-1.62 5.31c.02.15-.05.3-.15.4-.32.83-.7 1.64-1.1 2.44a.5.5 0 0 1-.27.56c-2.29 4.96-4.98 9.7-8 14.23a.46.46 0 0 1-.21.17c-.43.86-1.09 1.28-2.05.76-6.31-3.4-19.95-22.26-19.92-22.26-.32-.5-.6-.99-.77-1.58zm63.9-25.46c-.62-1.36-1.24-2.74-2.03-3.99a.51.51 0 0 1-.07-.22c-.37-.28-.75-.55-1.15-.8a26.43 26.43 0 0 1 1.94 4.23c.06.16.04.3-.03.4.45.1.9.23 1.33.38zm-2.26-.58a25.77 25.77 0 0 0-2.55-5.17.51.51 0 0 1-.08-.2c-.32-.16-.66-.3-1-.45.71 1.83 1.75 3.52 2.66 5.26.08.15.08.3.03.41.31.05.63.09.94.15zm-1.91-.28c-1.05-1.97-2.2-3.88-2.9-6.01-.43-.16-.86-.3-1.3-.43.8 2.18 2.52 3.95 3.27 6.19.02.05.02.1.02.15l.9.1zm-1.94-.21c-.85-2.33-2.7-4.14-3.37-6.54-.5-.12-.99-.23-1.48-.32.54 1.05.97 2.15 1.57 3.17.61 1.07 1.31 2.06 1.75 3.22.04.1.03.2.01.27l1.52.2zm-2.51-.33c-.46-1.18-1.24-2.24-1.87-3.33-.64-1.1-1.04-2.3-1.67-3.4-.47-.07-.93-.12-1.39-.16.6 1.08 1.14 2.2 1.79 3.26a12.43 12.43 0 0 1 1.65 3.45l1.49.18zm-3.5-.32c.33 0 .66.03.98.05-.38-1.22-1.07-2.25-1.75-3.35-.66-1.08-1.17-2.25-1.81-3.34l-1.12-.03c1.53 1.93 2.4 4.43 3.45 6.6.01.02 0 .04.02.07h.24zm-1.29-.02c-1-2.17-1.88-4.68-3.48-6.45a.55.55 0 0 1-.1-.17c-.33.01-.65.04-.97.07 1.23 2.04 2.4 4.1 3.18 6.36.03.06.03.12.03.18h1.34zm-2.32 0a33.37 33.37 0 0 0-3.1-6.12.47.47 0 0 1-.06-.32c-.42.06-.83.14-1.23.22 1 1.99 1.95 4.01 2.96 6 .05.1.06.18.05.26.46-.02.92-.04 1.38-.04zm-2.35.1c-1-1.99-1.94-4.02-2.96-6l-.03-.1c-.43.1-.86.22-1.29.36 1.12 1.84 2.31 3.7 3.12 5.7.02.06.02.1.02.15.38-.04.76-.08 1.14-.1zm-2.08.23l-.02-.03c-.8-1.97-2.02-3.82-3.12-5.63-.31.12-.63.23-.94.36l.04.05c.54.98.94 2 1.53 2.96.5.8 1.02 1.6 1.23 2.52.42-.09.85-.16 1.28-.23zm-6.07-4.41c1 1.67 2.15 3.25 3.16 4.92l.04.1.65-.16c-.23-.96-.83-1.79-1.34-2.62-.52-.83-.84-1.74-1.3-2.59a.5.5 0 0 1-.07-.19l-1.14.53zm1.26 5.68c.33-.13.67-.26 1-.37-.99-1.63-2.1-3.19-3.1-4.83 0-.02 0-.04-.02-.06l-.73.4.02.02c.65 1.76 1.85 3.24 2.82 4.83l.01.01zm-1.53.68l.63-.3c-.98-1.57-2.1-3.05-2.8-4.78l-1.09.66c.98 1.56 2.3 2.86 3.26 4.42zm-1.73.86l.85-.44c-.95-1.52-2.24-2.8-3.2-4.33l-.8.53c.7 1.64 2.26 2.7 3.15 4.24zm-2.06 1.16c.4-.24.8-.48 1.2-.7-.88-1.52-2.29-2.59-3.08-4.16-.27.18-.53.38-.8.58.72 1.53 1.77 2.87 2.68 4.28zm-4.02-2.96c.82 1.34 2 2.38 2.93 3.63l.01.03.27-.19c-.9-1.4-1.93-2.7-2.65-4.2l-.72.57c.06.04.12.09.16.16zm-1.66 1.15c.82 1.34 1.76 2.6 2.53 3.98l.02.04c.41-.34.84-.67 1.28-.98l-.08-.08c-.93-1.25-2.1-2.28-2.92-3.62l-.03-.07-.81.72v.01zm-.14 3.48c.46.57.86 1.19 1.25 1.81.23-.23.48-.45.73-.67a.53.53 0 0 1-.14-.16c-.74-1.31-1.63-2.53-2.43-3.8-.28.26-.55.54-.82.82l.06.08c.32.74.85 1.3 1.35 1.92zm-.3 3.5c.27-.33.55-.66.85-.98-.43-.7-.88-1.4-1.4-2.06-.46-.56-.93-1.08-1.25-1.73-.25.27-.49.54-.72.82.81 1.34 1.68 2.63 2.52 3.96zm-3.7-2.16l2.38 3.93.74-1.02a.52.52 0 0 1-.2-.18c-.8-1.25-1.6-2.48-2.39-3.74l-.65.87c.05.04.09.08.12.14zm1.27 5.55a30 30 0 0 1 .5-.75l-2.48-4.11-.56.85-.1.15c.81 1.34 1.82 2.54 2.64 3.86zm-1.14 2.02c.21-.43.44-.85.68-1.27a.47.47 0 0 1-.35-.24c-.73-1.18-1.6-2.26-2.37-3.43l-.47.93c.9 1.24 1.5 2.84 2.5 4zm-.75 1.73c.05-.2.1-.4.17-.6a.5.5 0 0 1 .13-.19c-1.06-1.1-1.7-2.61-2.52-3.92-.1.21-.18.44-.26.66.07.04.14.1.2.2.71 1.28 1.63 2.54 2.26 3.9zm-2.92-1.8c.73 1.17 1.57 2.27 2.27 3.46l.13-.34-.07-.12c-.5-1.47-1.5-2.82-2.3-4.16l-.3.94c.11.03.2.1.27.21zm1.7 4.8l.1-.22-.04-.05c-.67-1.28-1.55-2.43-2.33-3.65-.08.3-.14.6-.2.9.7 1.1 1.67 2 2.47 3.02zm-.55 1.14l.08-.15c-.67-.99-1.54-1.82-2.28-2.76l-.03.16c.02.02.05.04.07.08.59 1 1.42 1.8 2.16 2.67zm10.73 9.02c.03-.16.07-.32.08-.48-1-.88-1.97-1.82-3.04-2.62-.02.14-.06.28-.1.42.07.02.13.07.18.13.48.53 1.08.92 1.63 1.38.44.36.86.76 1.25 1.17zm-.4 1.82l.17-.65c-.44-.5-.92-.95-1.42-1.4-.53-.48-1.13-.88-1.65-1.38-.05.22-.13.43-.19.65.09.02.18.06.25.15.86.98 1.88 1.77 2.83 2.63zm-.37.98c-1-.94-2.1-1.77-3.03-2.8-.1.3-.2.58-.32.87 1.06.8 2.17 1.53 3.15 2.43l.2-.5zm-.87 1.97l.26-.52c-.95-.94-2.05-1.67-3.12-2.46l-.27.59c.92.97 2.1 1.56 3.13 2.4zm-.46.88c-.98-.86-2.16-1.45-3.11-2.35l-.33.61c.95.9 2.05 1.6 3.03 2.46l.41-.72zm-.9 1.58c-.96-.87-2.05-1.57-3.01-2.44l-.34.57c.69 1.15 1.89 1.82 2.88 2.68l.47-.8zm-.96 1.67c-.97-.9-2.13-1.57-2.93-2.63l-.6.96c.89 1.02 1.88 1.93 2.9 2.8.2-.38.41-.76.63-1.13zm-1.09 2.01a30.4 30.4 0 0 1-2.98-2.84l-.59.87c1.11.84 2.1 1.84 3.21 2.67l.36-.7zm-.8 1.57c-1.13-.83-2.11-1.83-3.23-2.68l-.07-.08-.53.76c.03.01.06.01.09.04 1.13.87 2.39 1.57 3.43 2.56l.3-.6zm-1.07 2.06l.3-.56c-1.03-1.03-2.3-1.73-3.44-2.6a.6.6 0 0 1-.13-.16l-.41.59a48.3 48.3 0 0 0 3.52 2.56c.07.05.13.11.16.17zm-.44.76a.47.47 0 0 1-.18-.07 51 51 0 0 1-3.62-2.63l-.44.64c.08.04.16.1.22.18.88 1.26 2.45 1.67 3.55 2.7.15-.28.3-.55.47-.82zm-1.4 2.42l.43-.74c-1.13-1.2-2.79-1.62-3.8-2.97l-.48.72c1.12 1.2 2.53 2.02 3.84 2.98v.01zm-2.58.28c.52.39 1.09.72 1.56 1.17l.47-.65c-1.3-.96-2.71-1.8-3.85-2.97l-.53.84c.82.47 1.58 1.04 2.35 1.61zm-3.76-1.24l.02-.06c4.22-6.94 10.85-13.4 11.46-22.07-3.37.12-11.28 1.05-11-.46a.46.46 0 0 1-.06-.26c.42-5.47 1.46-10.68 4.2-15.34 2.59-4.38 6.51-7.72 10.63-10.51 8.57-5.81 20.94-8.2 30.16-1.02a.42.42 0 0 1 .11-.02c3.7-2.22 6.42-5.65 9.65-8.46-1.96-3.17-5.26-5.45-8.18-7.6-3.73-2.73-8.11-3.81-12.54-4.18-8.02-.65-16.27 3.04-22.94 6.88-6.87 3.97-13.29 9.09-16.56 16.53-5.99 13.64-1.95 25.8-2 25.8a.41.41 0 0 1-.31.33c-2.81.69-5.75.68-8.56 1.35.2.46.48.83.76 1.26a.5.5 0 0 1 .09.23c2.18 3.02 13.45 17.02 15.07 17.6z"/></defs><g><g transform="translate(-309 -204)"><use xlink:href="#4xuaa"/></g></g></svg>