<svg xmlns="http://www.w3.org/2000/svg" xmlns:xlink="http://www.w3.org/1999/xlink" width="39" height="37" viewBox="0 0 39 37"><defs><path id="g39ia" d="M859.6 532.44l-4.44 2.01a.65.65 0 0 1-.76-.17l-3.87-4.52-2.1 5.9 4.93 4.4c.17.15.26.4.21.63l-1.72 9.38a2.34 2.34 0 0 1-2.28 1.93 2.27 2.27 0 0 1-1.77-.8 2.36 2.36 0 0 1-.53-1.85l1-7.14-4.5-3.45-3.54 3.63-5.93 4.96a2.3 2.3 0 0 1-3.3-.26c-.84-1-.73-2.5.25-3.37l5.39-4.95 4.52-6.62 2.96-6.63-3.53-1.03-3.98 3.56c-.83.74-2.09.7-2.87-.1a2.19 2.19 0 0 1 0-3.05l4.9-5a.65.65 0 0 1 .57-.18l8.55 1.34c.1.02.19.05.26.1l3.95 2.7c.06.04.12.1.16.15l3.62 4.94 1.77-.91.19-.09c1.23-.5 2.62.12 3.1 1.37.5 1.2-.04 2.6-1.2 3.12zm0-2.57c-.1-.3-.33-.55-.63-.67-.28-.11-.6-.1-.86.04l-2.26 1.16a.65.65 0 0 1-.82-.2l-3.88-5.29-3.73-2.54-8.08-1.27-4.67 4.76a.82.82 0 0 0-.04 1.14c.3.32.8.34 1.11.04l4.25-3.8c.17-.15.4-.2.61-.14l4.6 1.34.1.04c.33.15.48.55.33.89l-3.3 7.4a.65.65 0 0 1-.05.1l-4.6 6.73a.65.65 0 0 1-.1.12l-5.44 5a1.06 1.06 0 0 0-.11 1.45 1 1 0 0 0 1.44.14l5.88-4.92 3.9-4c.23-.23.6-.26.86-.06l5.26 4.04c.2.15.3.4.26.64l-1.06 7.53a.97.97 0 0 0 .95 1.12c.5.01.94-.34 1.03-.84l1.66-9-4.98-4.46a.68.68 0 0 1-.19-.74l2.63-7.4c.04-.1.1-.2.19-.27a.65.65 0 0 1 .93.06l4.28 5.01 4-1.8c.5-.23.74-.83.54-1.35zm-33.65-10.83h8.55v1.34h-8.55zm-3.95 5.38h5.26v1.34H822zm3.29 5.38h6.58v1.35h-6.58zm-1.97 5.38h11.18v1.35h-11.18zm1.31 5.38h5.27v1.35h-5.27zm-1.31 5.39h4.6v1.34h-4.6zm32.23-30.28v3.03c0 2.04-1.62 3.7-3.61 3.7-2 0-3.62-1.66-3.62-3.7s1.62-3.7 3.62-3.7h2.96c.36 0 .65.3.65.67zm-1.31 2.7c-1.54.04-3 .67-4.1 1.78.43.57 1.1.9 1.81.9a2.32 2.32 0 0 0 2.29-2.35zm0-2.02h-2.3a2.33 2.33 0 0 0-2.3 2.35v.1a7.24 7.24 0 0 1 4.6-1.77z"/></defs><g><g transform="translate(-822 -515)"><use fill="#86af14" xlink:href="#g39ia"/></g></g></svg>