<svg xmlns="http://www.w3.org/2000/svg" xmlns:xlink="http://www.w3.org/1999/xlink" width="39" height="29" viewBox="0 0 39 29"><defs><path id="fi11a" d="M368 570.15v22.7a3.1 3.1 0 0 1-3.02 3.15h-32.96a3.1 3.1 0 0 1-3.02-3.15v-22.7a3.1 3.1 0 0 1 3.02-3.15h32.96a3.01 3.01 0 0 1 3.02 3.15zm-1.73 22.4v-20.3l-12.56 10.11zM330.8 570l16.44 13.34c.58.52 1.65.52 2.3 0l16.66-13.5a1.33 1.33 0 0 0-1.22-.97h-32.9c-.64 0-1.14.53-1.28 1.13zm12.42 12.44l-12.42-10.05v20.16zm-11.13 11.84h32.9c.13 0 .2 0 .35-.08l-13.14-10.64-1.58 1.27c-.58.53-1.44.75-2.23.75s-1.58-.22-2.23-.75l-1.43-1.2-13 10.57c.07.08.21.08.36.08z"/></defs><g><g transform="translate(-329 -567)"><use fill="#8db422" xlink:href="#fi11a"/></g></g></svg>