<svg xmlns="http://www.w3.org/2000/svg" xmlns:xlink="http://www.w3.org/1999/xlink" width="31" height="31" viewBox="0 0 31 31"><defs><path id="dzs9a" d="M341.32 484.27v9.1h3.33v2.42h-3.33V499h-2.42v-3.2h-3.33v-2.43h3.33v-9.11a8.18 8.18 0 1 1 9.45-8.07 8.18 8.18 0 0 1-7.03 8.08zm4.6-8.08a5.76 5.76 0 1 0-11.5.01 5.76 5.76 0 0 0 11.5-.01zM363 490.83a8.18 8.18 0 0 1-16.35 0c0-4.07 3-7.46 6.9-8.07v-10.13l-2.11 2.12-1.72-1.71 5.05-5.04 5.04 5.04-1.71 1.71-2.12-2.12v10.11a8.18 8.18 0 0 1 7.02 8.1zm-2.42 0a5.76 5.76 0 1 0-11.52.02 5.76 5.76 0 0 0 11.52-.02z"/></defs><g><g transform="translate(-332 -468)"><use fill="#8db422" xlink:href="#dzs9a"/></g></g></svg>