<svg xmlns="http://www.w3.org/2000/svg" xmlns:xlink="http://www.w3.org/1999/xlink" width="27" height="27" viewBox="0 0 27 27"><defs><path id="7r3da" d="M1028.2 114.5l-11.96 12.04a.86.86 0 0 0 .6 1.46c.22 0 .44-.08.6-.25l12.05-12.13 12.05 12.13a.84.84 0 0 0 1.2 0 .86.86 0 0 0 0-1.21l-11.95-12.04 11.96-12.05a.86.86 0 0 0 0-1.2.85.85 0 0 0-1.2 0l-12.06 12.13-12.05-12.14a.85.85 0 0 0-1.2 0 .86.86 0 0 0 0 1.21z"/></defs><g><g clip-path="url(#clip-12022)" transform="translate(-1016 -101)"><use fill="#b5b5b5" xlink:href="#7r3da"/></g></g></svg>