<svg xmlns="http://www.w3.org/2000/svg" xmlns:xlink="http://www.w3.org/1999/xlink" width="36" height="42" viewBox="0 0 36 42"><defs><path id="k37ka" d="M1260 736.17c0 .46.3.83.7.83h26.6c.39 0 .7-.37.7-.83v-31.68c0-.47-.31-.84-.7-.84h-26.6c-.4 0-.7.37-.7.84z"/><path id="k37kb" d="M1260 702.82c0-.46.3-.84.7-.84h26.6c.39 0 .7.38.7.84v31.68c0 .46-.31.83-.7.83h-18.9l-8.4-8z"/><path id="k37kc" d="M1282.93 719.04c-.35 0-.65-.17-.85-.43a6.14 6.14 0 0 0-2.76 5.4s-1.96-1.79-5.3-1.79h-.01-.01c-3.34 0-5.3 1.78-5.3 1.78 0-2.94-1.5-4.56-2.78-5.4a1.06 1.06 0 0 1-1.92-.64c0-.6.48-1.08 1.07-1.08.52 0 .96.38 1.05.88 2.56.4 4.34 2.37 4.34 2.37 0-2.99 2.16-6.63 3.1-8.08a1.08 1.08 0 0 1 .47-2.05c.6 0 1.07.48 1.07 1.08 0 .44-.26.82-.64.99.95 1.46 3.1 5.08 3.1 8.06 0 0 1.77-1.97 4.32-2.37.1-.5.53-.88 1.05-.88.6 0 1.07.48 1.07 1.08 0 .6-.48 1.08-1.07 1.08z"/><path id="k37kf" d="M1260 735.33c0 .46.3.84.7.84h26.6c.39 0 .7-.38.7-.84v-31.68c0-.46-.31-.83-.7-.83h-26.6c-.4 0-.7.37-.7.83z"/><path id="k37kh" d="M1258 738v-39h32v39zm2-9.67l8.4 8h18.9c.39 0 .7-.37.7-.83v-31.68c0-.46-.31-.84-.7-.84h-26.6c-.4 0-.7.38-.7.84z"/><path id="k37kk" d="M1268.16 726.99h-8.17l8.17 8z"/><path id="k37kl" d="M1268.16 735h8.16l-8.16-8.01z"/><path id="k37km" d="M1263 728v-21h22v21zm19.93-6.96c.6 0 1.07-.49 1.07-1.08 0-.6-.48-1.08-1.07-1.08-.52 0-.96.38-1.05.88-2.55.4-4.32 2.37-4.32 2.37 0-2.98-2.15-6.6-3.1-8.06a1.08 1.08 0 0 0-.43-2.07c-.59 0-1.06.48-1.06 1.08 0 .43.24.8.6.97-.95 1.45-3.1 5.1-3.1 8.08 0 0-1.79-1.98-4.35-2.37-.1-.5-.53-.88-1.05-.88-.6 0-1.07.48-1.07 1.08 0 .6.48 1.08 1.07 1.08.35 0 .66-.18.85-.44a6.14 6.14 0 0 1 2.78 5.4s1.96-1.78 5.3-1.78h.02c3.34 0 5.3 1.78 5.3 1.78 0-2.93 1.5-4.55 2.76-5.39.2.26.5.43.85.43z"/><mask id="k37ke" width="2" height="2" x="-1" y="-1"><path fill="#fff" d="M1258 702h32v36h-32z"/><use xlink:href="#k37ka"/></mask><filter id="k37kd" width="62" height="68" x="1243" y="687" filterUnits="userSpaceOnUse"><feOffset dy="2" in="SourceGraphic" result="FeOffset1277Out"/><feGaussianBlur in="FeOffset1277Out" result="FeGaussianBlur1278Out" stdDeviation="2 2"/></filter><linearGradient id="k37kg" x1="1259.99" x2="1287.99" y1="732.33" y2="704.98" gradientUnits="userSpaceOnUse"><stop offset="0" stop-opacity=".1"/><stop offset="1" stop-opacity="0"/></linearGradient><filter id="k37ki" width="200%" height="200%" x="-50%" y="-50%"><feGaussianBlur in="SourceGraphic" result="FeGaussianBlur1309Out" stdDeviation="0 0"/></filter><mask id="k37kj"><use fill="#fff" xlink:href="#k37kb"/></mask><filter id="k37kn" width="200%" height="200%" x="-50%" y="-50%"><feGaussianBlur in="SourceGraphic" result="FeGaussianBlur1334Out" stdDeviation="0 0"/></filter><mask id="k37ko"><use fill="#fff" xlink:href="#k37kc"/></mask></defs><g><g transform="translate(-1256 -701)"><g><g filter="url(#k37kd)"><use fill="none" stroke-opacity=".75" stroke-width="0" mask="url(&quot;#k37ke&quot;)" xlink:href="#k37ka"/><use fill="#c48c00" fill-opacity=".75" xlink:href="#k37ka"/></g><use fill="#a6a49a" xlink:href="#k37ka"/></g><g><use fill="#c2c0b5" xlink:href="#k37kf"/></g><g><use fill="#fff" xlink:href="#k37kb"/><use fill="url(#k37kg)" xlink:href="#k37kb"/><use fill="#fff" fill-opacity=".25" stroke="#fff" stroke-opacity=".25" stroke-width="0" filter="url(#k37ki)" mask="url(&quot;#k37kj&quot;)" xlink:href="#k37kh"/></g><g><use fill="#fff" xlink:href="#k37kk"/></g><g><use xlink:href="#k37kl"/></g><g><g fill="#f56352" font-family="'RobotoSlab','RobotoSlab-Bold'" font-size="8" font-style="none" font-weight="700" style="text-transform:uppercase;line-height:24px"><text dominant-baseline="text-before-edge" font-family="Helvetica, Arial, sans-serif" transform="translate(1261 704)"><tspan style="font-kerning:normal">j</tspan></text></g></g><g><use fill="#f56352" xlink:href="#k37kc"/><use fill="#fff" fill-opacity=".5" stroke="#fff" stroke-opacity=".5" stroke-width="0" filter="url(#k37kn)" mask="url(&quot;#k37ko&quot;)" xlink:href="#k37km"/></g></g></g></svg>