<svg xmlns="http://www.w3.org/2000/svg" xmlns:xlink="http://www.w3.org/1999/xlink" width="41" height="107" viewBox="0 0 41 107"><defs><path id="cuija" d="M1194.45 858.06c.03.05 16.35 30.89 16.38 31.1.03.17.28.98.11 1.28-.73 1.3-1.43 2.62-2.85 3.3-1.43.7-3.24.55-4.8.63.13 2.1.45 12.63.94 20.68.13.13.22.3.2.54l-.03 1.98c.13 1.9.28 3.57.44 4.8 1.65 12.92 3.54 39.65 3.34 39.99-.54.97-20.52 2.1-25.73 1.45-3.56-.45-7.53-5.1-7.79-5.23a.64.64 0 0 1-.34-.73.67.67 0 0 1-.18-.49c.44-12.1 1.35-24.19 2.33-36.26.76-9.27 1.02-18.75 2.73-27.93-1.59-.02-3.45.07-4.76-.95-1.28-1-2.23-2.33-3.48-3.37-.23-.18-.28-.4-.23-.6-.44-.09-.84-.47-.67-.96a78.07 78.07 0 0 1 11.43-21.32c2.91-3.85 10.23-11.9 12.96-7.91zm-6.52 101.66l.5.29c.6.05 1.2.08 1.8.11-.12-.09-.23-.18-.33-.28l-1.97-.12zm-5.69-92.6l.5-.62c1.34-1.73 3.57-4.6 6.02-6.33a.88.88 0 0 1-.14-.21c-2.29 1.6-4.57 4.51-6.38 7.16zm-7.68 23.31c.12-.18.31-.3.6-.29 1.2.06 2.61.42 3.8 0-1.63.2-3.3-.09-4.95-.26.18.19.36.38.55.55zm31.51 66.44c-.94-1.07-2.46-2.86-2.75-3.23l.22 2.22c.12 0 1.6 1.24 2.57 2.15l-.04-1.14zm-.23-5.3a35.63 35.63 0 0 1-2.97-2.45l.28 2.72c.27-.08 1.89 1.64 2.82 2.57l-.13-2.84zm-3.47-7.34l.29 2.82c.11.01 1.8 1.51 3.08 2.56-.06-1.2-.14-2.38-.22-3.58-1.03-.65-2.14-1.13-3.15-1.8zm2.7-3.66a11.1 11.1 0 0 1-3.29-1.94l.4 3.8c.14.01 1.94 1.05 3.2 1.78l-.3-3.64zm-3.73-6.24l.21 2.12c.07.04.14.07.2.13.92.93 1.97 1.74 3.14 2.3-.11-1.1-.24-2.2-.38-3.3-.84-.3-2.39-.99-3.17-1.25zm2.53-3.63c-1.07-.57-1.99-1.38-3.07-1.91l.38 3.9c1.05.39 2.12.72 3.11 1.22l-.42-3.21zm-2.16-6.17l-1.35-.8.29 3.42c.07 0 .13 0 .21.04 1.02.41 1.87 1.11 2.78 1.7-.13-1.12-.26-2.23-.37-3.35-.6-.24-1.01-.69-1.56-1.01zm-1.73-5.7l.24 3.23c.15-.03.32 0 .48.12.51.35 1.06.64 1.6.96.27.16.54.4.82.6-.1-1.17-.16-2.35-.2-3.54-.94-.54-1.93-.97-2.94-1.37zm-.3-4.82c.06 1.07.12 2.14.2 3.21.03 0 .07 0 .11.02.97.37 1.93.77 2.86 1.23l-.36-2.78c-1.04-.4-1.85-1.16-2.81-1.68zm-.24-5.52a299.9 299.9 0 0 0 .16 3.85c.97.4 1.77 1.11 2.68 1.61a229.1 229.1 0 0 1-.47-4.25 8.5 8.5 0 0 1-1.21-.71c-.35-.24-.7-.5-1.13-.5h-.03zm-.12-5.28c.01 1.27.03 2.54.07 3.81l.1-.02c.9 0 1.49.51 2.16.95l-.14-1.5-.15-2.14c-.02 0-.05 0-.08-.02-.68-.3-1.28-.8-1.96-1.08zm1.49-4.24c-.52-.2-.99-.48-1.48-.73-.02 1.15-.02 2.3-.02 3.44.1 0 .19 0 .29.04.61.22 1.12.6 1.67.92a47.41 47.41 0 0 1-.01-3.69.64.64 0 0 1-.45.02zm-1.32-6.64c-.04.97-.1 3.35-.13 4.32.05 0 .09.02.13.04.6.26 1.14.63 1.75.85l.08.04c.06-1.08.13-2.16.03-3.2-.04-.02-1.5-1.78-1.86-2.05zm-27.13-5.32c.74.12 9.63.5 9.5 1-2.82 11.05-3.1 23.25-4.01 34.56-.9 11.1-1.71 22.2-2.15 33.33 8.7-.05 17.4.07 26.1.36.11 0 .2.03.3.07-2.05-22.07-5.37-44.1-3.96-66.31 0-.14.08-1.41.48-1.37 2.8.11 6.5.25 9.26-.33h.02a.77.77 0 0 1-.05-.27c.02-1.46-13.94-28-14.22-28.28-4.1-4.08-20.26 21.87-21.27 27.24z"/></defs><g><g transform="translate(-1170 -857)"><use xlink:href="#cuija"/></g></g></svg>